<svg width="80" height="81" viewBox="0 0 80 81" fill="none" xmlns="http://www.w3.org/2000/svg">
<rect y="0.5" width="80" height="80" rx="20" fill="#10B981"/>
<path d="M34.8562 49.5V46.8409L41.0692 41.0881C41.5977 40.5767 42.0408 40.1165 42.3988 39.7074C42.7624 39.2983 43.038 38.8977 43.2255 38.5057C43.413 38.108 43.5067 37.679 43.5067 37.2188C43.5067 36.7074 43.3903 36.267 43.1573 35.8977C42.9244 35.5227 42.6062 35.2358 42.2028 35.0369C41.7994 34.8324 41.342 34.7301 40.8306 34.7301C40.2965 34.7301 39.8306 34.8381 39.4329 35.054C39.0352 35.2699 38.7283 35.5795 38.5124 35.983C38.2965 36.3864 38.1886 36.8665 38.1886 37.4233H34.6857C34.6857 36.2812 34.9442 35.2898 35.4613 34.4489C35.9783 33.608 36.7028 32.9574 37.6346 32.4972C38.5664 32.0369 39.6403 31.8068 40.8562 31.8068C42.1062 31.8068 43.1942 32.0284 44.1204 32.4716C45.0522 32.9091 45.7766 33.517 46.2937 34.2955C46.8107 35.0739 47.0692 35.9659 47.0692 36.9716C47.0692 37.6307 46.9386 38.2812 46.6772 38.9233C46.4215 39.5653 45.9641 40.2784 45.305 41.0625C44.646 41.8409 43.717 42.7756 42.5181 43.8665L39.9698 46.3636V46.483H47.2994V49.5H34.8562Z" fill="white"/>
</svg>
