<svg width="80" height="81" viewBox="0 0 80 81" fill="none" xmlns="http://www.w3.org/2000/svg">
<rect y="0.5" width="80" height="80" rx="20" fill="#10B981"/>
<path d="M40.9563 49.7386C39.6836 49.7386 38.5501 49.5199 37.5558 49.0824C36.5671 48.6392 35.7859 48.0312 35.212 47.2585C34.6438 46.4801 34.3512 45.5824 34.3342 44.5653H38.0501C38.0728 44.9915 38.212 45.3665 38.4677 45.6903C38.729 46.0085 39.0756 46.2557 39.5075 46.4318C39.9393 46.608 40.4251 46.696 40.9648 46.696C41.5273 46.696 42.0245 46.5966 42.4563 46.3977C42.8881 46.1989 43.2262 45.9233 43.4705 45.571C43.7148 45.2187 43.837 44.8125 43.837 44.3523C43.837 43.8864 43.7063 43.4744 43.445 43.1165C43.1893 42.7528 42.82 42.4687 42.337 42.2642C41.8597 42.0597 41.2915 41.9574 40.6325 41.9574H39.0046V39.2472H40.6325C41.1893 39.2472 41.6808 39.1506 42.1069 38.9574C42.5387 38.7642 42.8739 38.4972 43.1126 38.1562C43.3512 37.8097 43.4705 37.4062 43.4705 36.946C43.4705 36.5085 43.3654 36.125 43.1552 35.7955C42.9506 35.4602 42.6609 35.1989 42.2859 35.0114C41.9165 34.8239 41.4847 34.7301 40.9904 34.7301C40.4904 34.7301 40.033 34.821 39.6183 35.0028C39.2035 35.179 38.8711 35.4318 38.6211 35.7614C38.3711 36.0909 38.2376 36.4773 38.2205 36.9205H34.6836C34.7006 35.9148 34.9876 35.0284 35.5444 34.2614C36.1012 33.4943 36.8512 32.8949 37.7944 32.4631C38.7433 32.0256 39.8143 31.8068 41.0075 31.8068C42.212 31.8068 43.266 32.0256 44.1694 32.4631C45.0728 32.9006 45.7745 33.4915 46.2745 34.2358C46.7802 34.9744 47.0302 35.804 47.0245 36.7244C47.0302 37.7017 46.7262 38.517 46.1126 39.1705C45.5046 39.8239 44.712 40.2386 43.7347 40.4148V40.5511C45.0188 40.7159 45.9961 41.1619 46.6665 41.8892C47.3427 42.6108 47.6779 43.5142 47.6722 44.5994C47.6779 45.5938 47.391 46.4773 46.8114 47.25C46.2376 48.0227 45.445 48.6307 44.4336 49.0739C43.4222 49.517 42.2631 49.7386 40.9563 49.7386Z" fill="white"/>
</svg>
