<svg width="32" height="33" viewBox="0 0 32 33" fill="none" xmlns="http://www.w3.org/2000/svg">
<rect y="0.5" width="32" height="32" rx="6" fill="#10B981"/>
<path d="M8.88494 21.5V11.3182H11.0376V19.7251H15.4027V21.5H8.88494ZM16.8283 21.5V11.3182H20.8453C21.6143 11.3182 22.2705 11.4557 22.8141 11.7308C23.361 12.0026 23.7769 12.3887 24.062 12.8892C24.3503 13.3864 24.4945 13.9714 24.4945 14.6442C24.4945 15.3203 24.3487 15.902 24.057 16.3892C23.7653 16.8731 23.3427 17.2443 22.7892 17.5028C22.2391 17.7614 21.5729 17.8906 20.7907 17.8906H18.101V16.1605H20.4426C20.8536 16.1605 21.195 16.1042 21.4668 15.9915C21.7386 15.8788 21.9408 15.7098 22.0733 15.4844C22.2092 15.259 22.2772 14.9789 22.2772 14.6442C22.2772 14.3061 22.2092 14.0211 22.0733 13.7891C21.9408 13.5571 21.7369 13.3814 21.4618 13.2621C21.19 13.1394 20.847 13.0781 20.4327 13.0781H18.981V21.5H16.8283ZM22.3269 16.8665L24.8574 21.5H22.481L20.0051 16.8665H22.3269Z" fill="white"/>
</svg>
