<svg width="64" height="65" viewBox="0 0 64 65" fill="none" xmlns="http://www.w3.org/2000/svg">
<rect y="0.5" width="64" height="64" rx="16" fill="white"/>
<path d="M36 32.5C36 33.5609 35.5786 34.5783 34.8284 35.3284C34.0783 36.0786 33.0609 36.5 32 36.5C30.9391 36.5 29.9217 36.0786 29.1716 35.3284C28.4214 34.5783 28 33.5609 28 32.5C28 31.4391 28.4214 30.4217 29.1716 29.6716C29.9217 28.9214 30.9391 28.5 32 28.5C33.0609 28.5 34.0783 28.9214 34.8284 29.6716C35.5786 30.4217 36 31.4391 36 32.5Z" stroke="black" stroke-width="2" stroke-linecap="round" stroke-linejoin="round"/>
<path d="M19.2773 32.5C20.976 27.0906 26.0307 23.1666 32 23.1666C37.9707 23.1666 43.024 27.0906 44.7227 32.5C43.024 37.9093 37.9707 41.8333 32 41.8333C26.0307 41.8333 20.976 37.9093 19.2773 32.5Z" stroke="black" stroke-width="2" stroke-linecap="round" stroke-linejoin="round"/>
</svg>
